Coordinates
version=1
nRows=7
nColumns=40
inDegrees=yes

Units are S.I. units (second, meters, Newtons, ...)
If the header above contains a line with 'inDegrees', this indicates whether rotational values are in degrees (yes) or radians (no).

endheader
time	pelvis_tilt	pelvis_list	pelvis_rotation	pelvis_tx	pelvis_ty	pelvis_tz	hip_flexion_r	hip_adduction_r	hip_rotation_r	knee_angle_r	knee_angle_r_beta	ankle_angle_r	subtalar_angle_r	mtp_angle_r	hip_flexion_l	hip_adduction_l	hip_rotation_l	knee_angle_l	knee_angle_l_beta	ankle_angle_l	subtalar_angle_l	mtp_angle_l	lumbar_extension	lumbar_bending	lumbar_rotation	arm_flex_r	arm_add_r	arm_rot_r	elbow_flex_r	pro_sup_r	wrist_flex_r	wrist_dev_r	arm_flex_l	arm_add_l	arm_rot_l	elbow_flex_l	pro_sup_l	wrist_flex_l	wrist_dev_l
      4.32500000	    -12.32822281	     57.62335263	    -89.98822633	      0.45318107	      0.70578771	     -0.54089943	     41.25521671	      2.56434326	    -39.97769500	      0.04065332	      0.00070953	     31.26115926	      0.00000000	      0.00000000	     96.60845164	     29.93522879	     39.96649109	     49.12817864	      0.85744847	    -20.47363939	      0.00000000	      0.00000000	    -89.92544484	     77.53097738	     60.41634477	     71.79883470	    -22.80894301	     38.76924274	     18.42734839	     47.11717321	      0.00000000	      0.00000000	     82.26293090	      0.59129933	     78.55643714	     12.66478363	     25.11637775	      0.00000000	      0.00000000
      4.33000000	    -12.34537517	     57.68126153	    -89.98819360	      0.45307957	      0.70559744	     -0.54097787	     41.31944374	      2.58062779	    -39.97768343	      0.04071765	      0.00071066	     31.27827572	      0.00000000	      0.00000000	     96.67468154	     29.93470558	     39.96655387	     49.15615015	      0.85793667	    -20.48135358	      0.00000000	      0.00000000	    -89.92550425	     77.50979171	     60.44089896	     71.80406410	    -22.80616881	     38.77274195	     18.44248476	     47.12206929	      0.00000000	      0.00000000	     82.26749529	      0.56262785	     78.55117742	     12.65736128	     25.11733006	      0.00000000	      0.00000000
      4.33500000	    -12.36248682	     57.74045174	    -89.98816340	      0.45297349	      0.70541771	     -0.54102188	     41.38451817	      2.59626481	    -39.97767426	      0.04072843	      0.00071085	     31.29824187	      0.00000000	      0.00000000	     96.74258707	     29.93406538	     39.96658062	     49.18707189	      0.85847635	    -20.48989785	      0.00000000	      0.00000000	    -89.92542964	     77.48548809	     60.46726052	     71.80476113	    -22.80069117	     38.77696763	     18.45655464	     47.12684226	      0.00000000	      0.00000000	     82.29104339	      0.54561291	     78.54427486	     12.65851936	     25.11884105	      0.00000000	      0.00000000
      4.34000000	    -12.38748811	     57.79863991	    -89.98813135	      0.45289070	      0.70521769	     -0.54107223	     41.44493495	      2.62031352	    -39.97766170	      0.04075455	      0.00071130	     31.32097339	      0.00000000	      0.00000000	     96.81297639	     29.93334022	     39.96662667	     49.21864130	      0.85902734	    -20.49651035	      0.00000000	      0.00000000	    -89.92552156	     77.45590115	     60.49025716	     71.82668213	    -22.80599584	     38.77734248	     18.47500756	     47.13144573	      0.00000000	      0.00000000	     82.30685696	      0.52149084	     78.53749348	     12.65792465	     25.12029610	      0.00000000	      0.00000000
      4.34500000	    -12.40913652	     57.85668694	    -89.98810165	      0.45279907	      0.70501499	     -0.54114023	     41.50883739	      2.64082756	    -39.97764888	      0.04078506	      0.00071183	     31.34722471	      0.00000000	      0.00000000	     96.88256501	     29.93274415	     39.96667405	     49.25523870	      0.85966609	    -20.50433945	      0.00000000	      0.00000000	    -89.92560461	     77.42372295	     60.51448399	     71.84773476	    -22.81127559	     38.77768602	     18.49413329	     47.13615590	      0.00000000	      0.00000000	     82.32311430	      0.49773113	     78.52992204	     12.65947894	     25.12195551	      0.00000000	      0.00000000
      4.35000000	    -12.43293277	     57.91700513	    -89.98807181	      0.45270588	      0.70482158	     -0.54119250	     41.57245692	      2.66461481	    -39.97763491	      0.04081677	      0.00071239	     31.37444197	      0.00000000	      0.00000000	     96.95126148	     29.93210097	     39.96672366	     49.29049344	      0.86028140	    -20.51124819	      0.00000000	      0.00000000	    -89.92568658	     77.38873487	     60.54122124	     71.86848377	    -22.81546571	     38.77810211	     18.51434418	     47.14094006	      0.00000000	      0.00000000	     82.33935231	      0.47534732	     78.52263741	     12.66293977	     25.12377443	      0.00000000	      0.00000000
      4.35500000	    -12.45562416	     57.98004589	    -89.98804186	      0.45258417	      0.70463323	     -0.54124288	     41.63363961	      2.69012060	    -39.97762300	      0.04082092	      0.00071246	     31.40214327	      0.00000000	      0.00000000	     97.02447192	     29.93140168	     39.96676968	     49.32652050	      0.86091019	    -20.51744793	      0.00000000	      0.00000000	    -89.92578580	     77.35359413	     60.56918043	     71.88712406	    -22.82003046	     38.77854734	     18.53446889	     47.14578547	      0.00000000	      0.00000000	     82.35745535	      0.45319440	     78.51475632	     12.66788977	     25.12573837	      0.00000000	      0.00000000
